HIERARCHY
ROOT Hips
{
    OFFSET   0.000000   0.000000   0.000000
    CHANNELS 6 Xposition Yposition Zposition Zrotation Xrotation Yrotation
    JOINT Chest
    {
        OFFSET   0.000000   8.007240   0.000000
        CHANNELS 3 Zrotation Xrotation Yrotation
        JOINT Chest2
        {
            OFFSET   0.000000  22.077100   0.000000
            CHANNELS 3 Zrotation Xrotation Yrotation
            JOINT Neck
            {
                OFFSET   0.000000  23.254800   0.000000
                CHANNELS 3 Zrotation Xrotation Yrotation
                JOINT Head
                {
                    OFFSET   0.000000  14.370000   1.956600
                    CHANNELS 3 Zrotation Xrotation Yrotation
                    End Site
                    {
                        OFFSET   0.000000  19.566000   0.000000
                    }
                }
            }
            JOINT LeftCollar
            {
                OFFSET   3.911900  19.017000  -0.467064
                CHANNELS 3 Zrotation Xrotation Yrotation
                JOINT LeftShoulder
                {
                    OFFSET  10.383700   0.000000   0.000000
                    CHANNELS 3 Zrotation Xrotation Yrotation
                    JOINT LeftElbow
                    {
                        OFFSET  26.662100   0.001476   0.000517
                        CHANNELS 3 Zrotation Xrotation Yrotation
                        JOINT LeftWrist
                        {
                            OFFSET  28.869000  -0.000025  -0.000106
                            CHANNELS 3 Zrotation Xrotation Yrotation
                            JOINT LeftFinger0
                            {
                                OFFSET   2.044660  -2.323460   3.252850
                                CHANNELS 3 Zrotation Xrotation Yrotation
                                JOINT LeftFinger01
                                {
                                    OFFSET   3.088130   0.000000   0.000000
                                    CHANNELS 3 Zrotation Xrotation Yrotation
                                    JOINT LeftFinger02
                                    {
                                        OFFSET   2.639460   0.000000   0.000000
                                        CHANNELS 3 Zrotation Xrotation Yrotation
                                        End Site
                                        {
                                            OFFSET   2.582190   0.000000   0.000000
                                        }
                                    }
                                }
                            }
                            JOINT LeftFinger1
                            {
                                OFFSET   8.364480   0.000000   3.252850
                                CHANNELS 3 Zrotation Xrotation Yrotation
                                JOINT LeftFinger11
                                {
                                    OFFSET   4.646930   0.000000   0.000000
                                    CHANNELS 3 Zrotation Xrotation Yrotation
                                    JOINT LeftFinger12
                                    {
                                        OFFSET   2.323460   0.000000   0.000000
                                        CHANNELS 3 Zrotation Xrotation Yrotation
                                        End Site
                                        {
                                            OFFSET   2.273050   0.000000   0.000000
                                        }
                                    }
                                }
                            }
                            JOINT LeftFinger2
                            {
                                OFFSET   8.364490   0.000015   1.078090
                                CHANNELS 3 Zrotation Xrotation Yrotation
                                JOINT LeftFinger21
                                {
                                    OFFSET   5.111620   0.000000   0.000000
                                    CHANNELS 3 Zrotation Xrotation Yrotation
                                    JOINT LeftFinger22
                                    {
                                        OFFSET   2.788160   0.000016   0.000000
                                        CHANNELS 3 Zrotation Xrotation Yrotation
                                        End Site
                                        {
                                            OFFSET   2.727660   0.000000   0.000000
                                        }
                                    }
                                }
                            }
                            JOINT LeftFinger3
                            {
                                OFFSET   7.899780   0.000017  -1.078090
                                CHANNELS 3 Zrotation Xrotation Yrotation
                                JOINT LeftFinger31
                                {
                                    OFFSET   4.646930   0.000000   0.000000
                                    CHANNELS 3 Zrotation Xrotation Yrotation
                                    JOINT LeftFinger32
                                    {
                                        OFFSET   2.323470   0.000000   0.000000
                                        CHANNELS 3 Zrotation Xrotation Yrotation
                                        End Site
                                        {
                                            OFFSET   2.273050   0.000000   0.000000
                                        }
                                    }
                                }
                            }
                            JOINT LeftFinger4
                            {
                                OFFSET   7.435090   0.000000  -3.252850
                                CHANNELS 3 Zrotation Xrotation Yrotation
                                JOINT LeftFinger41
                                {
                                    OFFSET   3.717550   0.000000   0.000000
                                    CHANNELS 3 Zrotation Xrotation Yrotation
                                    JOINT LeftFinger42
                                    {
                                        OFFSET   1.858770   0.000000   0.000000
                                        CHANNELS 3 Zrotation Xrotation Yrotation
                                        End Site
                                        {
                                            OFFSET   1.818440   0.000000   0.000000
                                        }
                                    }
                                }
                            }
                        }
                    }
                }
            }
            JOINT RightCollar
            {
                OFFSET  -3.911900  19.017000  -0.467063
                CHANNELS 3 Zrotation Xrotation Yrotation
                JOINT RightShoulder
                {
                    OFFSET -10.383700   0.000019   0.000000
                    CHANNELS 3 Zrotation Xrotation Yrotation
                    JOINT RightElbow
                    {
                        OFFSET -26.662100   0.001175   0.000102
                        CHANNELS 3 Zrotation Xrotation Yrotation
                        JOINT RightWrist
                        {
                            OFFSET -28.869000   0.000016  -0.000079
                            CHANNELS 3 Zrotation Xrotation Yrotation
                            JOINT RightFinger0
                            {
                                OFFSET  -2.044660  -2.323490   3.252850
                                CHANNELS 3 Zrotation Xrotation Yrotation
                                JOINT RightFinger01
                                {
                                    OFFSET  -3.088140   0.000000   0.000000
                                    CHANNELS 3 Zrotation Xrotation Yrotation
                                    JOINT RightFinger02
                                    {
                                        OFFSET  -2.639460   0.000000   0.000000
                                        CHANNELS 3 Zrotation Xrotation Yrotation
                                        End Site
                                        {
                                            OFFSET  -2.582190   0.000000   0.000000
                                        }
                                    }
                                }
                            }
                            JOINT RightFinger1
                            {
                                OFFSET  -8.364480   0.000000   3.252850
                                CHANNELS 3 Zrotation Xrotation Yrotation
                                JOINT RightFinger11
                                {
                                    OFFSET  -4.646930   0.000000   0.000000
                                    CHANNELS 3 Zrotation Xrotation Yrotation
                                    JOINT RightFinger12
                                    {
                                        OFFSET  -2.323470   0.000000   0.000000
                                        CHANNELS 3 Zrotation Xrotation Yrotation
                                        End Site
                                        {
                                            OFFSET  -2.273050   0.000000   0.000000
                                        }
                                    }
                                }
                            }
                            JOINT RightFinger2
                            {
                                OFFSET  -8.364480   0.000000   1.078090
                                CHANNELS 3 Zrotation Xrotation Yrotation
                                JOINT RightFinger21
                                {
                                    OFFSET  -5.111620   0.000000   0.000000
                                    CHANNELS 3 Zrotation Xrotation Yrotation
                                    JOINT RightFinger22
                                    {
                                        OFFSET  -2.788160   0.000000   0.000000
                                        CHANNELS 3 Zrotation Xrotation Yrotation
                                        End Site
                                        {
                                            OFFSET  -2.727660   0.000000   0.000000
                                        }
                                    }
                                }
                            }
                            JOINT RightFinger3
                            {
                                OFFSET  -7.899780   0.000000  -1.078090
                                CHANNELS 3 Zrotation Xrotation Yrotation
                                JOINT RightFinger31
                                {
                                    OFFSET  -4.646930   0.000000   0.000000
                                    CHANNELS 3 Zrotation Xrotation Yrotation
                                    JOINT RightFinger32
                                    {
                                        OFFSET  -2.323470   0.000000   0.000000
                                        CHANNELS 3 Zrotation Xrotation Yrotation
                                        End Site
                                        {
                                            OFFSET  -2.273050   0.000000   0.000000
                                        }
                                    }
                                }
                            }
                            JOINT RightFinger4
                            {
                                OFFSET  -7.435090   0.000000  -3.252850
                                CHANNELS 3 Zrotation Xrotation Yrotation
                                JOINT RightFinger41
                                {
                                    OFFSET  -3.717550   0.000000   0.000000
                                    CHANNELS 3 Zrotation Xrotation Yrotation
                                    JOINT RightFinger42
                                    {
                                        OFFSET  -1.858770   0.000000   0.000000
                                        CHANNELS 3 Zrotation Xrotation Yrotation
                                        End Site
                                        {
                                            OFFSET  -1.818440   0.000000   0.000000
                                        }
                                    }
                                }
                            }
                        }
                    }
                }
            }
        }
    }
    JOINT LeftHip
    {
        OFFSET   9.783040   0.000000   0.000000
        CHANNELS 3 Zrotation Xrotation Yrotation
        JOINT LeftKnee
        {
            OFFSET   0.000032 -41.789100  -0.002222
            CHANNELS 3 Zrotation Xrotation Yrotation
            JOINT LeftAnkle
            {
                OFFSET   0.000087 -41.133200  -0.000135
                CHANNELS 3 Zrotation Xrotation Yrotation
                JOINT LeftToe
                {
                    OFFSET   0.000000  -6.358960  14.674500
                    CHANNELS 3 Zrotation Xrotation Yrotation
                    End Site
                    {
                        OFFSET   0.000000   0.000000   3.913200
                    }
                }
            }
        }
    }
    JOINT RightHip
    {
        OFFSET  -9.783040   0.000000   0.000000
        CHANNELS 3 Zrotation Xrotation Yrotation
        JOINT RightKnee
        {
            OFFSET   0.000047 -41.789100  -0.000896
            CHANNELS 3 Zrotation Xrotation Yrotation
            JOINT RightAnkle
            {
                OFFSET  -0.000117 -41.133300  -0.000248
                CHANNELS 3 Zrotation Xrotation Yrotation
                JOINT RightToe
                {
                    OFFSET   0.000000  -6.358970  14.674500
                    CHANNELS 3 Zrotation Xrotation Yrotation
                    End Site
                    {
                        OFFSET   0.000000   0.000000   3.913200
                    }
                }
            }
        }
    }
}
MOTION
Frames: 4
Frame Time:   0.016667
 -0.802683  89.466400   3.787090  -1.767810  -8.392190   3.029380   1.845140   4.970460  -1.507810   3.843090   9.887710  -3.194140   1.874930   1.654980  -0.063660   3.087490   3.344870   4.650160  -5.352750   1.549320  -0.396128 -72.252700  20.314600  -8.566010  -2.960010  -4.421580  -9.767350   8.468370  -5.571520   9.643540  41.469600  28.338300 -65.405400 -21.456400   0.000000   0.000071  -5.728180  -0.001616  -0.002522 -35.256600   6.638320  -9.287500 -29.296300  -0.002688  -0.005853 -20.494900  -0.001826  -0.002271 -28.658600   2.847560  -5.194370 -42.011200  -0.001490  -0.000108 -27.979400  -0.004837  -0.001224 -28.785600  -0.677870   1.227190 -43.151900  -0.000546   0.000724 -28.739100  -0.000529  -0.000828 -37.309500  -0.848834   1.113780 -55.962200  -0.001038   0.000581 -37.279700  -0.000935  -0.003644   5.383890  -1.361180  11.342700  71.017000  19.738500   1.087180   1.318850   0.560001   7.925890 -15.849400 -12.216600   0.358428 -43.153000  35.607600  76.033300  23.273800  -0.005247  -0.010154   6.636920   0.010244  -0.002988  31.931700   6.218210   9.859630  26.565200  -0.002357   0.000102  18.595600  -0.002941   0.006072  27.276900   0.111781   0.216763  28.166100   0.002687  -0.007161  18.758600   0.001590   0.002587  25.899800  -1.781230  -3.666470  25.956800   0.011694  -0.007200  17.287200   0.002945  -0.002676  26.303300  -1.916880  -3.858960  39.552500   0.007633  -0.008847  26.341900   0.001477  -0.004472   2.971000  12.730200   3.198770   1.186410   0.171049  10.542300  -2.459990  -3.296800  -0.133491  -0.000000   0.000000  -0.000000   3.018550   6.985550  -0.591762   1.981390   4.686620 -13.460000  -4.912850  -3.265220  -6.543820  -0.000000   0.000000   0.000000
 -0.802307  89.466500   3.799100  -1.769140  -8.374490   3.026630   1.838590   4.965790  -1.503630   3.829400   9.878810  -3.185000   1.893550   1.651520  -0.063650   3.118100   3.337720   4.660070  -5.352860   1.549250  -0.395613 -72.262900  20.305900  -8.566070  -2.955300  -4.424460  -9.780570   8.481230  -5.586760   9.635340  41.473100  28.354100 -65.415200 -21.465700   0.000000   0.000077  -5.732850  -0.001595  -0.002509 -35.257100   6.632190  -9.278930 -29.292300  -0.002687  -0.005857 -20.494800  -0.001822  -0.002278 -28.658800   2.846430  -5.191560 -42.023900  -0.001490  -0.000107 -27.987900  -0.004830  -0.001220 -28.785600  -0.677870   1.228490 -43.162900  -0.000545   0.000723 -28.746500  -0.000530  -0.000820 -37.309500  -0.849770   1.114930 -55.970800  -0.001036   0.000577 -37.279700  -0.000935  -0.003638   5.393580  -1.376710  11.345000  71.041700  19.768900   1.109110   1.330670   0.534239   7.854340 -15.854700 -12.211100   0.355102 -43.150100  35.602300  76.045700  23.260800  -0.005257  -0.010163   6.630410   0.010246  -0.002987  31.940500   6.231450   9.876760  26.574100  -0.002350   0.000104  18.601800  -0.002927   0.006075  27.286700   0.124506   0.241329  28.209900   0.002696  -0.007162  18.787800   0.001592   0.002585  25.930100  -1.779680  -3.656760  25.986900   0.011697  -0.007198  17.307300   0.002953  -0.002678  26.333000  -1.916880  -3.858960  39.596700   0.007625  -0.008854  26.371400   0.001455  -0.004471   2.978040  12.707000   3.201130   1.182740   0.210400  10.536500  -2.466980  -3.324640  -0.127759   0.000000   0.000000   0.000000   3.011620   6.974150  -0.627739   1.990440   4.689270 -13.405400  -4.926530  -3.269880  -6.566020   0.000000   0.000000  -0.000000
 -0.801931  89.466600   3.818790  -1.771430  -8.349690   3.019820   1.828180   4.961130  -1.496160   3.807670   9.869990  -3.168860   1.926070   1.643950  -0.063615   3.171550   3.322080   4.675040  -5.353120   1.549070  -0.392010 -72.275700  20.297100  -8.569430  -2.947690  -4.432520  -9.803020   8.499240  -5.602020   9.625850  41.480800  28.385800 -65.430600 -21.485600   0.000000   0.000089  -5.742830  -0.001554  -0.002473 -35.256900   6.621780  -9.264740 -29.286000  -0.002687  -0.005863 -20.494600  -0.001811  -0.002293 -28.659500   2.843370  -5.185030 -42.036600  -0.001489  -0.000107 -27.996400  -0.004813  -0.001210 -28.785500  -0.677869   1.233190 -43.174000  -0.000545   0.000721 -28.753900  -0.000532  -0.000805 -37.309400  -0.853065   1.119170 -55.979300  -0.001034   0.000574 -37.279800  -0.000936  -0.003621   5.410160  -1.404470  11.351600  71.084600  19.823300   1.166550   1.346600   0.481482   7.726930 -15.863300 -12.199800   0.351768 -43.145800  35.595000  76.070300  23.238300  -0.005274  -0.010173   6.619140   0.010253  -0.002982  31.954500   6.253850   9.906110  26.588500  -0.002330   0.000107  18.611900  -0.002897   0.006084  27.301000   0.144729   0.280371  28.274300   0.002718  -0.007164  18.830700   0.001603   0.002577  25.975400  -1.775090  -3.637990  26.031800   0.011707  -0.007191  17.337200   0.002979  -0.002684  26.376500  -1.916880  -3.858960  39.661600   0.007606  -0.008877  26.414600   0.001405  -0.004465   2.987950  12.683800   3.207970   1.181500   0.249755  10.526500  -2.477180  -3.363080  -0.117589   0.000000   0.000000  -0.000000   3.004810   6.957130  -0.669697   2.005950   4.697370 -13.330000  -4.948480  -3.280230  -6.597170  -0.000000   0.000000   0.000000
 -0.803543  89.466700   3.833840  -1.777440  -8.338960   3.009160   1.820790   4.962610  -1.488430   3.792170   9.873310  -3.152720   1.954580   1.633770  -0.063544   3.218350   3.300960   4.683550  -5.353680   1.548740  -0.378112 -72.273000  20.310300  -8.585190  -2.942690  -4.449750  -9.822620   8.505500  -5.595460   9.624230  41.491800  28.424600 -65.439900 -21.512300   0.000039   0.000094  -5.756160  -0.001514  -0.002418 -35.253200   6.610730  -9.252560 -29.281200  -0.002689  -0.005868 -20.494300  -0.001795  -0.002314 -28.660500   2.838190  -5.175440 -42.035000  -0.001489  -0.000107 -27.995400  -0.004782  -0.001193 -28.785300  -0.682267   1.242900 -43.171300  -0.000544   0.000721 -28.752100  -0.000531  -0.000790 -37.309200  -0.859773   1.127990 -55.979000  -0.001035   0.000575 -37.279800  -0.000936  -0.003591   5.426960  -1.432700  11.366600  71.120100  19.869400   1.247730   1.355190   0.420443   7.611600 -15.867800 -12.187500   0.359144 -43.142800  35.590700  76.102200  23.213300  -0.005281  -0.010166   6.606600   0.010262  -0.002973  31.967600   6.274000   9.932890  26.601400  -0.002295   0.000112  18.621000  -0.002863   0.006101  27.309600   0.158906   0.307734  28.313000   0.002752  -0.007167  18.856500   0.001628   0.002560  26.004400  -1.767950  -3.618880  26.060400   0.011726  -0.007177  17.356300   0.003024  -0.002698  26.401900  -1.916200  -3.856800  39.699800   0.007583  -0.008917  26.440100   0.001332  -0.004448   2.990730  12.692000   3.220720   1.188940   0.241990  10.516500  -2.482400  -3.377660  -0.107473  -0.000000   0.000000   0.000000   3.004640   6.946090  -0.674378   2.020320   4.713530 -13.306900  -4.964470  -3.294890  -6.608900   0.000000   0.000000   0.000000
